<svg xmlns="http://www.w3.org/2000/svg" viewBox="0 0 14 14">
  <defs>
    <style>
      .cls-1 {
        fill: #7f7f7f;
      }
    </style>
  </defs>
  <path id="Icon" class="cls-1" d="M7,14a7,7,0,1,1,7-7A7.008,7.008,0,0,1,7,14ZM6.125,9.625v1.75H7.874V9.625ZM7,4.375a.876.876,0,0,1,.875.875c0,.357-.476.673-.875.875a1.64,1.64,0,0,0-.875,1.621v.129H7.874c0-.287.263-.478.6-.72a2.2,2.2,0,0,0,1.156-1.9,2.59,2.59,0,0,0-.769-1.97A2.678,2.678,0,0,0,7,2.625,2.628,2.628,0,0,0,4.375,5.25h1.75A.876.876,0,0,1,7,4.375Z"/>
</svg>
